<svg width="131" height="40" viewBox="0 0 131 40" fill="none" xmlns="http://www.w3.org/2000/svg">
  <!-- FO in White (for dark backgrounds) -->
  <path d="M3.8147e-06 34.176V0.575993H21.888V5.80799H6.48V14.784H18.816V19.872H6.48V34.176H3.8147e-06ZM42.1759 34.752C38.9119 34.752 36.0319 34.016 33.5359 32.544C31.0399 31.072 29.0879 29.04 27.6799 26.448C26.2719 23.824 25.5679 20.8 25.5679 17.376C25.5679 13.952 26.2719 10.944 27.6799 8.35199C29.0879 5.72799 31.0399 3.67999 33.5359 2.20799C36.0319 0.735994 38.9119 -5.72205e-06 42.1759 -5.72205e-06C45.4719 -5.72205e-06 48.3679 0.735994 50.8639 2.20799C53.3599 3.67999 55.2959 5.72799 56.6719 8.35199C58.0799 10.944 58.7839 13.952 58.7839 17.376C58.7839 20.8 58.0799 23.824 56.6719 26.448C55.2959 29.04 53.3599 31.072 50.8639 32.544C48.3679 34.016 45.4719 34.752 42.1759 34.752ZM42.1759 28.944C44.2239 28.944 45.9839 28.48 47.4559 27.552C48.9599 26.592 50.1279 25.248 50.9599 23.52C51.7919 21.792 52.2079 19.744 52.2079 17.376C52.2079 14.976 51.7919 12.928 50.9599 11.232C50.1279 9.50399 48.9599 8.17599 47.4559 7.24799C45.9839 6.31999 44.2239 5.85599 42.1759 5.85599C40.1599 5.85599 38.3999 6.31999 36.8959 7.24799C35.3919 8.17599 34.2239 9.50399 33.3919 11.232C32.5599 12.928 32.1439 14.976 32.1439 17.376C32.1439 19.744 32.5599 21.792 33.3919 23.52C34.2239 25.248 35.3919 26.592 36.8959 27.552C38.3999 28.48 40.1599 28.944 42.1759 28.944Z" fill="#FFFFFF"/>
  <!-- HQ in Muted Gold -->
  <path d="M85.4805 34.176V0.575993H91.9605V34.176H85.4805ZM64.3125 34.176V0.575993H70.7925V34.176H64.3125ZM69.8805 19.632V14.4H86.5845V19.632H69.8805ZM122.002 39.456L109.762 20.208H117.202L129.73 39.456H122.002ZM114.082 34.752C110.818 34.752 107.938 34.016 105.442 32.544C102.946 31.072 100.994 29.04 99.5861 26.448C98.1781 23.824 97.4741 20.8 97.4741 17.376C97.4741 13.952 98.1781 10.944 99.5861 8.35199C100.994 5.72799 102.946 3.67999 105.442 2.20799C107.938 0.735994 110.818 -5.72205e-06 114.082 -5.72205e-06C117.378 -5.72205e-06 120.274 0.735994 122.77 2.20799C125.266 3.67999 127.202 5.72799 128.578 8.35199C129.986 10.944 130.69 13.952 130.69 17.376C130.69 20.8 129.986 23.824 128.578 26.448C127.202 29.04 125.266 31.072 122.77 32.544C120.274 34.016 117.378 34.752 114.082 34.752ZM114.082 28.944C116.13 28.944 117.89 28.48 119.362 27.552C120.866 26.592 122.034 25.248 122.866 23.52C123.698 21.792 124.114 19.744 124.114 17.376C124.114 14.976 123.698 12.928 122.866 11.232C122.034 9.50399 120.866 8.17599 119.362 7.24799C117.89 6.31999 116.13 5.85599 114.082 5.85599C112.066 5.85599 110.306 6.31999 108.802 7.24799C107.298 8.17599 106.13 9.50399 105.298 11.232C104.466 12.928 104.05 14.976 104.05 17.376C104.05 19.744 104.466 21.792 105.298 23.52C106.13 25.248 107.298 26.592 108.802 27.552C110.306 28.48 112.066 28.944 114.082 28.944Z" fill="#B8860B"/>
</svg>